<svg viewBox="0 0 992 364" xmlns="http://www.w3.org/2000/svg" fill-rule="evenodd" clip-rule="evenodd" stroke-linecap="round" stroke-linejoin="round" stroke-miterlimit="1.414"><path d="M2.996 50.016V301.03s339.02 31.748 494 30c279.24-3.15 493.017-85.958 492-159.008-1.055-75.773-220.203-155.563-492-157.008-155.103-.825-494 35.002-494 35.002z" fill="#595959"/><clipPath id="a"><path d="M2.996 50.016V301.03s339.02 31.748 494 30c279.24-3.15 493.017-85.958 492-159.008-1.055-75.773-220.203-155.563-492-157.008-155.103-.825-494 35.002-494 35.002z"/></clipPath><g clip-path="url(#a)"><path d="M616 15H234v318.016h382C650.44 232.188 647.894 91.53 616 15z" fill="gray" stroke-width="5" stroke="#737373"/><path fill="#999" d="M1.996 18.014h243V326.03h-243z"/><clipPath id="b"><path d="M1.996 18.014h243V326.03h-243z"/></clipPath><g clip-path="url(#b)"><path d="M247.086 24.95L-8.69 303.286l7.36 6.767 255.78-278.334-7.364-6.767z" fill="#EBEBEB"/><path d="M-10.004 44.88l252.68 281.15 7.436-6.685L-2.566 38.195l-7.438 6.684z" fill="#EBEBEB"/><ellipse cx="113.231" cy="175.778" rx="65.769" ry="65.773" fill="none" stroke-width="10" stroke="#fff"/><text x="53.097" y="168.368" font-family="Menlo" font-size="67.826" font-weight="700" fill="#666" transform="matrix(0 1 -1 0 181.414 91.98)">7<tspan x="91.248" y="168.368">3</tspan></text><text x="55.519" y="165.946" font-family="Menlo" font-size="67.826" font-weight="700" fill="#F2F2F2" transform="matrix(0 1 -1 0 181.414 87.135)">7<tspan x="93.67" y="165.946">3</tspan></text><path fill="#FFD200" d="M206.5 6h10v375.02h-10z"/></g><path d="M374 34L267 46l-3 256 116 10 35-15-1.926-252L374 34z" fill="#999" stroke-width="4" stroke="#A6A6A6"/></g><path d="M483.88 332.6l-1.94-.002-1.954-.005-1.97-.007-1.984-.01-2-.014-2.014-.016-2.03-.02-2.04-.02-2.058-.025-2.07-.026-2.085-.03-2.097-.03-2.11-.036-2.125-.038-2.137-.04-2.15-.043-2.16-.045-2.176-.047-2.186-.05-2.2-.053-2.21-.055-2.22-.058-2.234-.06-2.244-.063-2.256-.065-2.266-.066-2.277-.07-2.288-.07-2.298-.075-2.308-.075-2.318-.078-2.327-.08-2.338-.083-2.346-.084-2.356-.087-2.364-.09-2.373-.09-2.382-.093-2.39-.095-2.398-.097-2.406-.098-2.415-.1-2.42-.104-2.43-.105-2.437-.105-2.444-.11-2.452-.11-2.457-.11-2.463-.115-2.47-.115-2.478-.118-2.483-.12-2.49-.12-2.493-.122-2.5-.124-2.504-.125-2.51-.127-2.514-.13-2.52-.13-2.523-.13-2.528-.134-2.533-.135-2.536-.138-2.54-.137-2.543-.14-2.547-.14-2.55-.142-2.553-.143-2.556-.145-2.558-.146-2.562-.148-2.563-.148-2.565-.15-2.567-.15-2.57-.153-2.57-.152-2.57-.154-2.574-.156-2.574-.156-2.575-.158-2.574-.158-2.575-.16-2.575-.16-2.575-.162-2.576-.162-2.575-.164-2.575-.164-2.574-.165-2.57-.167-2.573-.167-2.57-.168-2.57-.168-2.567-.17-2.565-.17-2.563-.17-2.56-.17-2.56-.173-2.556-.173-2.553-.173-2.55-.173-2.547-.174-2.544-.175-2.54-.176-2.537-.176-2.532-.176-5.053-.354-5.034-.356-5.016-.357-4.994-.36-4.972-.36-4.948-.36-4.922-.36-4.896-.362-4.867-.36-4.837-.363-4.806-.362-4.773-.362-4.738-.36-4.703-.362-4.666-.36-4.626-.358-4.586-.358-4.544-.357-4.5-.355-4.457-.353-4.41-.352-4.362-.35-4.312-.346-4.262-.344-4.21-.342-4.155-.34-4.1-.335-4.043-.332-3.985-.33-3.926-.324-3.864-.322-3.8-.318-3.738-.314-3.67-.31-3.605-.304-3.536-.3-3.465-.295-3.394-.29-3.32-.284-3.245-.28-3.168-.273-3.09-.268-3.012-.26-2.93-.257-2.85-.25-2.765-.242-5.273-.465-4.92-.435-4.554-.406-4.178-.375-3.79-.34-3.387-.308-2.975-.27-2.55-.234-2.114-.194-2.87-.267-2.338-.217V48.666l2.32-.245 2.87-.298 2.112-.22 2.55-.263 2.974-.307 3.387-.347 3.787-.386 4.176-.424 4.553-.46 4.918-.494 5.27-.526 2.766-.275 2.847-.28 2.93-.29 3.01-.298 3.092-.304 3.166-.31 3.245-.317 3.32-.322 3.39-.33 3.465-.335 3.535-.34 3.603-.347 3.67-.35 3.736-.358 3.8-.36 3.863-.367 3.924-.37 3.984-.374 4.044-.378 4.1-.383 4.154-.386 4.21-.39 4.26-.393 4.31-.395 4.362-.398 4.41-.4 4.455-.404 4.5-.405 4.544-.407 4.584-.41 4.626-.41 4.664-.41 4.703-.414 4.737-.414 4.773-.414 4.805-.415 4.837-.414 4.865-.415 4.895-.414 4.922-.415 4.948-.413 4.97-.413 4.995-.412 5.014-.41 2.514-.206 2.52-.205 2.523-.203 2.528-.204 2.533-.204 2.536-.203 2.54-.203 2.543-.202 2.547-.2 2.55-.202 2.553-.2 2.556-.2 2.56-.198 2.56-.198 2.563-.198 2.565-.197 2.568-.196 2.57-.196 2.57-.194 2.57-.193 2.573-.192 2.575-.192 2.574-.19 2.574-.19 2.576-.19 2.575-.187 2.576-.188 2.576-.186 2.575-.185 2.575-.182 2.574-.183 2.572-.18 2.57-.18 2.572-.18 2.57-.178 2.566-.177 2.565-.175 2.563-.174 2.56-.172 2.56-.17 2.556-.17 2.553-.17 2.55-.166 2.547-.166 2.544-.164 2.54-.162 2.536-.16 2.533-.16 2.528-.16 2.524-.155 2.52-.154 2.514-.152 2.51-.15 2.505-.15 2.5-.15 2.493-.144 2.49-.145 2.482-.143 2.477-.14 2.47-.14 2.465-.136 2.46-.134 2.45-.132 2.444-.13 2.44-.13 2.43-.127 2.42-.125 2.416-.122 2.407-.12 2.4-.12 2.39-.115 2.382-.114 2.374-.11 2.364-.11 2.357-.108 2.348-.105 2.337-.103 2.328-.1 2.32-.098 2.307-.096 2.3-.093 2.287-.09 2.278-.09 2.267-.085 2.256-.083 2.246-.082 2.234-.078 2.223-.075 2.212-.073 2.2-.07 2.187-.068 2.174-.065 2.163-.063 2.15-.06 2.14-.056 2.124-.052 2.113-.05 2.1-.05 2.084-.044 2.072-.043 2.057-.038 2.044-.036 2.03-.033 2.016-.03 2-.028 1.987-.024 1.97-.02 1.957-.018.973-.008.968-.007.966-.006.96-.005.958-.004.952-.003.95-.003.944-.002h.94l.938-.002h1.863l.925.003.92.003.917.004.912.004 1.594.01 1.592.01 1.592.013 1.59.015 1.588.017 1.588.017 1.586.02 1.585.022 1.583.023 1.582.025 1.582.027 1.58.03 1.578.03 1.577.032 1.576.034 1.575.037 1.573.037 1.572.04 1.57.04 1.57.044 1.568.044 1.567.046 1.565.048 1.564.05 1.563.05 1.56.054 1.56.055 1.56.057 1.556.058 1.556.06 1.554.06 1.553.064 1.55.065 1.55.066 1.55.068 1.546.07 1.544.07 1.544.075 1.542.073 1.54.077 1.54.078 1.538.08 1.537.08 1.534.084 1.533.085 1.53.086 1.532.088 1.528.09 1.527.092 1.526.093 1.524.094 1.522.096 1.52.097 1.52.1 1.518.1 1.516.103 1.514.104 1.513.105 1.51.107 1.51.11 1.508.11 1.507.11 1.505.115 1.502.115 1.502.117 1.5.117 1.497.12 1.496.12 1.493.123 1.493.125 1.49.126 1.49.128 1.487.13 1.486.13 1.483.13 1.482.135 1.48.135 1.48.137 1.476.138 1.476.14 1.473.14 1.47.143 1.47.144 1.468.145 1.466.147 1.464.15 1.463.15 1.46.15 1.46.153 1.457.155 1.454.155 1.455.158 1.45.16 1.45.16 1.447.16 1.446.163 1.443.165 1.443.167 1.44.168 1.437.168 1.436.17 1.434.172 1.432.173 1.43.175 1.428.176 1.426.176 1.424.18 1.422.18 1.42.18 1.418.184 1.416.184 1.413.186 1.41.187 1.41.19 1.41.188 1.405.192 1.403.192 1.402.193 1.4.196 1.397.195 1.395.198 1.394.2 1.39.2 1.39.203 1.387.203 1.385.204 1.382.206 1.38.207 1.38.21 1.376.21 1.374.21 1.37.213 1.37.214 1.37.216 1.364.216 1.363.218 1.36.22 1.36.22 1.356.222 1.355.223 1.352.223 1.35.226 1.347.226 1.345.228 1.343.23 1.34.23 1.34.232 1.335.233 1.334.234 1.332.235 1.33.236 1.326.24 1.324.238 1.323.24 1.32.243 1.316.243 1.315.244 1.314.246 1.31.246 1.31.248 1.304.25 1.304.25 1.3.252 1.3.252 1.295.254 1.294.255 1.292.257 1.29.257 1.285.26 1.284.26 1.283.26 1.28.263 1.275.264 1.274.264 1.272.267 1.27.267 1.265.268 1.263.27 1.262.27 1.26.27 1.255.273 1.254.274 1.25.274 1.25.276 1.246.277 1.244.278 1.24.28 1.24.28 1.236.28 1.233.284 1.23.282 1.23.285 1.224.286 1.223.287 1.22.288 1.218.29 1.215.29 1.212.29 1.21.293 1.207.295 1.204.294 1.2.294 1.2.297 1.196.3 1.194.297 1.19.3 1.19.3 1.184.303 1.182.302 1.18.304L795 49.5l1.174.307 1.17.307 1.17.308 1.166.31 1.163.31 1.16.31 1.158.312 1.156.313 1.152.314 1.15.316 1.145.315 1.144.318 1.14.318 1.138.32 1.135.32 1.132.32 1.13.32 1.125.324 1.123.324 1.12.324 1.118.326 1.115.326 1.112.328 1.11.328 1.104.33 1.102.33 1.1.33 1.097.333 1.093.332 1.09.334 1.09.335 1.084.336 1.083.337 1.08.337 1.075.34 1.073.338 1.07.34 1.067.342 1.064.342 1.06.343 1.058.343 1.054.345 1.052.345 1.05.347 1.044.347 1.043.348 1.04.35 1.037.35 1.033.35 1.03.35 1.027.353 1.024.353 1.02.354 1.02.355 1.013.356 1.01.357 1.01.357 1.004.358 1.002.36.997.36.995.36.993.36.988.363.986.363.98.364.98.364.976.365.973.367.97.367.965.368.963.368.96.37.955.37.953.37.95.37.947.373.943.373.94.374.936.374.933.375.93.375.926.376.924.38.92.377.916.378.913.38.91.38.906.38.9.382.9.383.897.383.892.383.888.385.886.386.882.386.88.386.874.387.872.388.868.388.865.39.86.39.86.39.853.39.85.393.848.393.844.392.84.394.837.394.833.395.83.397.826.396.822.397.82.397.814.398.812.4.808.398.805.4.8.4.798.402.793.4.79.404.787.4.782.405.78.404.775.404.772.405.768.405.764.406.76.408.758.407.753.408.75.41.745.408.742.41.74.41.733.412.73.41.728.413.723.412.72.413.716.414.712.414.708.414.704.415.7.416.698.416.693.415.688.417.685.418.682.418.677.418.674.42.67.42.666.42.662.42.658.42.655.422.65.422.647.422.642.423.64.423.634.424.63.424.627.425.623.426.62.426.614.426.61.426.608.427.603.43.6.426.595.43.59.427.588.43.583.43.58.43.575.43.57.43.567.43.563.433.56.432.553.432.55.433.547.433.543.434.538.434.534.434.53.435.526.435.522.435.518.436.513.435.508.437.506.437.5.436.25.22.247.218.248.22.246.218.245.22.242.22.243.218.242.22.24.22.24.22.238.22.238.218.236.22.234.22.234.22.233.22.234.22.23.22.23.22.23.222.227.22.228.22.226.222.225.22.222.222.223.22.22.222.22.22.22.222.22.222.216.22.217.223.215.22.214.223.213.222.21.22.21.223.21.223.21.222.207.223.206.222.206.222.203.223.203.222.202.223.2.222.2.223.2.223.197.223.197.224.195.223.195.223.193.223.192.223.19.223.19.223.19.223.188.224.187.223.185.224.185.224.183.225.183.224.18.223.18.224.18.224.178.225.176.224.176.224.175.224.173.225.172.224.172.225.17.225.168.224.168.226.167.226.166.224.163.225.163.227.163.225.16.225.16.226.158.225.158.226.157.225.155.225.155.225.153.226.152.226.15.226.15.226.15.226.146.226.147.226.146.226.144.227.143.226.142.227.14.227.14.226.138.227.137.227.136.226.135.227.135.227.133.227.13.228.13.227.13.227.128.227.127.227.126.227.123.227.123.23.123.226.12.228.12.227.118.23.117.227.117.227.115.228.114.228.113.228.112.228.11.228.11.228.108.228.106.228.105.23.104.227.103.228.102.23.1.227.1.23.1.228.096.228.097.23.095.227.094.23.093.228.09.23.09.23.09.228.087.23.086.228.085.23.085.228.082.23.082.23.08.228.08.23.078.23.077.228.075.23.075.23.073.228.072.23.07.23.07.23.068.23.067.23.066.23.065.228.063.23.062.23.06.23.06.23.06.23.056.23.056.23.054.23.054.23.052.23.05.23.05.23.05.23.046.23.046.23.045.23.043.232.042.23.04.23.04.23.04.23.036.23.036.232.035.23.032.23.032.23.03.23.03.232.03.23.026.23.025.23.025.232.023.23.022.23.02.23.02.232.018.23.017.23.015.23.014.232.012.23.012.23.01.23.01.232.007.23.007.23.005.23.004.23.003.224v.445l-.002.222-.002.223-.004.223-.005.223-.007.224-.008.223-.01.223-.01.223-.01.223-.013.223-.015.222-.016.223-.017.224-.018.222-.02.223-.02.223-.02.224-.024.223-.023.223-.026.224-.025.223-.028.223-.03.224-.03.224-.03.223-.034.222-.034.224-.037.223-.036.223-.038.224-.04.223-.04.224-.042.223-.043.224-.044.224-.044.224-.047.224-.05.223-.048.224-.05.222-.05.224-.054.223-.054.223-.055.223-.057.224-.058.224-.06.223-.06.224-.06.224-.062.224-.064.224-.066.223-.066.224-.067.222-.068.223-.07.224-.07.223-.073.223-.074.223-.074.223-.076.223-.077.224-.08.223-.078.223-.08.224-.083.223-.084.224-.084.223-.085.223-.086.223-.087.223-.09.223-.09.223-.09.223-.092.222-.093.223-.095.224-.096.222-.097.223-.1.223-.098.223-.1.224-.103.223-.104.223-.104.223-.105.222-.107.223-.107.223-.11.224-.11.223-.11.222-.112.222-.113.223-.115.222-.115.223-.117.223-.118.222-.12.223-.12.222-.12.222-.124.223-.124.222-.125.223-.127.222-.127.222-.13.222-.128.222-.13.223-.133.223-.133.222-.134.222-.135.222-.137.22-.137.223-.14.222-.14.222-.14.222-.142.22-.144.222-.144.222-.145.22-.147.223-.148.222-.15.22-.148.222-.15.22-.154.222-.153.222-.154.22-.155.223-.157.22-.157.22-.158.222-.16.22-.16.222-.164.22-.163.222-.164.22-.165.222-.167.22-.167.222-.168.22-.17.22-.17.222-.173.22-.175.22-.174.222-.175.22-.176.22-.18.22-.178.22-.18.22-.18.222-.183.22-.184.22-.184.22-.186.22-.186.22-.188.22-.188.22-.19.22-.19.22-.192.22-.194.22-.193.218-.196.22-.197.22-.197.22-.2.218-.198.22-.2.22-.202.218-.203.22-.204.218-.206.22-.205.218-.208.22-.208.218-.21.22-.21.218-.21.22-.213.217-.213.218-.214.218-.216.22-.216.217-.217.22-.22.217-.22.218-.22.218-.222.22-.222.217-.224.218-.225.22-.227.216-.227.218-.228.218-.23.218-.23.217-.232.218-.232.217-.234.218-.234.217-.236.217-.237.218-.476.434-.48.434-.486.434-.488.433-.493.433-.498.433-.502.433-.505.432-.51.432-.514.432-.517.43-.523.433-.526.43-.53.43-.535.43-.54.43-.542.43-.547.43-.55.43-.555.428-.56.428-.562.43-.567.427-.57.428-.576.427-.58.426-.583.427-.587.426-.59.427-.596.425-.6.425-.603.425-.606.424-.61.424-.616.423-.62.423-.622.423-.627.422-.632.422-.635.42-.64.423-.642.42-.645.42-.65.42-.655.42-.66.42-.66.42-.667.417-.67.418-.674.418-.68.417-.68.417-.686.416-.69.416-.692.415-.697.416-.7.415-.706.415-.71.414-.71.412-.718.413-.72.412-.723.412-.728.41-.732.41-.735.412-.738.41-.743.41-.746.408-.75.408-.754.408-.757.408-.76.407-.766.407-.768.406-.772.406-.776.404-.78.404-.783.404-.786.404-.79.402-.795.403-.8.402-.8.402-.806.4-.81.4-.81.4-.818.4-.82.398-.823.397-.827.397-.83.397-.835.396-.837.395-.84.395-.846.395-.848.394-.854.392-.855.392-.858.393-.863.39-.867.392-.87.39-.873.39-.877.388-.88.388-.884.388-.89.387-.89.387-.894.386-.898.385-.9.385-.906.384-.908.383-.91.382-.916.382-.92.38-.92.382-.926.38-.93.38-.93.378-.937.377-.94.38-.94.375-.947.376-.95.376-.95.374-.957.374-.958.373-.963.372-.967.37-.97.37-.972.37-.974.37-.98.37-.982.367-.986.367-.99.366-.99.366-.997.364-.998.365-1.002.363-1.006.362-1.01.362-1.01.36-1.016.36-1.018.36-1.022.36-1.025.357-1.028.356-1.032.356-1.034.356-1.04.354-1.04.354-1.044.353-1.047.35-1.052.353-1.054.35-1.056.35-1.06.35-1.064.347-1.066.347-1.07.346-1.072.346-1.075.343-1.078.344-1.082.343-1.085.342-1.088.34-1.09.342-1.096.34-1.096.338-1.1.337-1.104.336-1.106.336-1.11.335-1.112.334-1.116.334-1.118.332-1.122.332-1.125.33-1.127.33-1.13.328-1.134.328-1.138.327-1.14.326-1.142.325-1.145.325-1.15.323-1.15.322-1.155.32-1.157.32-1.16.32-1.164.318-1.167.318-1.17.316-1.17.315-1.176.314-1.178.314-1.182.313-1.183.31-1.187.31-1.19.31-1.19.31-1.196.306-1.198.306-1.2.304-1.204.305-1.207.302-1.21.302-1.21.3-1.216.3-1.217.3-1.22.298-1.224.297-1.226.295-1.23.294-1.23.293-1.235.293-1.237.29-1.24.292-1.242.29-1.245.288-1.247.287-1.25.286-1.254.284-1.258.284-1.26.283-1.26.283-1.264.28-1.267.28-1.27.278-1.27.278-1.276.277-1.278.275-1.28.274-1.283.272-1.285.272-1.29.27-1.29.27-1.293.268-1.296.267-1.3.266-1.3.263-1.304.264-1.307.262-1.31.26-1.31.26-1.315.26-1.317.257-1.32.256-1.32.255-1.325.254-1.327.253-1.33.252-1.33.25-1.336.25-1.337.247-1.34.247-1.34.246-1.345.244-1.347.243-1.348.242-1.352.24-1.354.24-1.357.238-1.36.237-1.362.235-1.364.234-1.366.232-1.37.232-1.37.23-1.374.23-1.376.227-1.378.228-1.38.225-1.384.224-1.386.223-1.387.22-1.39.22-1.393.22-1.395.217-1.398.216-1.4.215-1.4.213-1.406.213-1.405.21-1.41.21-1.41.208-1.414.208-1.414.205-1.418.204-1.42.203-1.423.2-1.425.2-1.427.2-1.43.197-1.43.196-1.435.194-1.436.193-1.438.192-1.44.19-1.443.19-1.444.186-1.447.186-1.45.184-1.452.184-1.454.18-1.455.182-1.46.18-1.46.176-1.462.176-1.464.174-1.466.174-1.47.17-1.47.17-1.472.17-1.475.167-1.476.167-1.48.165-1.48.163-1.484.16-1.485.16-1.488.16-1.49.156-1.49.157-1.494.154-1.496.153-1.498.15-1.5.15-1.502.148-1.504.148-1.505.145-1.51.143-1.51.142-1.51.14-1.514.14-1.516.136-1.517.136-1.52.134-1.52.132-1.525.13-1.525.13-1.528.13-1.53.125-1.53.126-1.533.123-1.535.12-1.537.12-1.54.12-1.54.116-1.542.115-1.544.115-1.547.112-1.548.11-1.55.11-1.553.106-1.553.105-1.556.104-1.557.103-1.558.1-1.56.1-1.564.097-1.565.095-1.566.095-1.568.092-1.57.09-1.573.09-1.573.087-1.575.087-1.578.084-1.58.084-1.58.08-1.582.08-1.583.077-1.586.076-1.586.074-1.59.073-1.59.07-1.593.07-1.593.066-1.596.065-1.596.063-1.6.062-1.6.06-1.602.06-1.605.056-1.605.055-1.608.054-1.61.052-1.61.05-1.61.048-1.615.046-1.617.045-1.617.042-1.618.04-1.62.04-1.622.038-1.623.036-1.625.034-1.627.032-1.627.03-1.63.03-1.63.026-1.633.025-1.634.023-1.636.02-1.637.02-.91.01-.917.01-.92.008-.924.007-.928.007-.932.006-.936.005-.94.005-.945.004-.947.003-1.908.004h-1.924zm0-3h1.92l1.905-.005.945-.003.942-.004.938-.005.934-.005.93-.006.925-.007.92-.007.918-.01.913-.008.91-.01 1.633-.02 1.632-.02 1.63-.023 1.63-.025 1.628-.026 1.626-.03 1.624-.03 1.623-.03 1.62-.035 1.62-.034 1.62-.038 1.617-.04 1.615-.04 1.612-.042 1.612-.045 1.61-.045 1.61-.048 1.607-.05 1.607-.05 1.604-.054 1.603-.055 1.6-.057 1.6-.057 1.597-.06 1.596-.062 1.594-.063 1.593-.065 1.59-.067 1.59-.07 1.587-.07 1.586-.07 1.584-.075 1.582-.076 1.58-.077 1.58-.08 1.576-.08 1.576-.082 1.573-.084 1.572-.084 1.57-.087 1.568-.09 1.566-.09 1.565-.093 1.562-.094 1.56-.096 1.56-.097 1.558-.1 1.556-.1 1.554-.1 1.552-.105 1.55-.105 1.55-.107 1.545-.11 1.545-.11 1.543-.11 1.54-.114 1.54-.116 1.538-.116 1.535-.12 1.534-.118 1.53-.122 1.53-.122 1.53-.125 1.525-.125 1.524-.128 1.523-.13 1.52-.13 1.518-.132 1.517-.134 1.514-.134 1.514-.137 1.51-.14 1.508-.14 1.507-.14 1.503-.144 1.502-.144 1.5-.146 1.5-.148 1.495-.15 1.494-.15 1.493-.152 1.49-.153 1.488-.156 1.486-.156 1.485-.157 1.482-.16 1.48-.16 1.478-.163 1.476-.164 1.474-.166 1.472-.167 1.47-.168 1.466-.17 1.466-.17 1.463-.174 1.462-.173 1.46-.175 1.455-.177 1.455-.18 1.452-.18 1.45-.18 1.448-.183 1.446-.184 1.444-.185 1.44-.187 1.44-.19 1.437-.188 1.434-.192 1.433-.192 1.43-.194 1.428-.195 1.426-.197 1.425-.198 1.42-.2 1.42-.2 1.417-.202 1.415-.204 1.412-.205 1.41-.207 1.407-.207 1.405-.21 1.403-.21 1.4-.21 1.4-.214 1.396-.214 1.394-.216 1.392-.216 1.39-.22 1.386-.218 1.384-.22 1.382-.223 1.38-.223 1.377-.225 1.375-.226 1.373-.226 1.37-.23 1.367-.228 1.366-.23 1.363-.234 1.36-.233 1.357-.236 1.355-.236 1.354-.238 1.35-.238 1.348-.24 1.346-.24 1.343-.244 1.34-.243 1.34-.245 1.335-.246 1.333-.247 1.332-.25 1.328-.248 1.326-.252 1.323-.252 1.32-.254 1.318-.254 1.316-.256 1.313-.257 1.31-.258 1.308-.26 1.305-.26 1.303-.26 1.3-.264 1.298-.264 1.296-.266 1.292-.266 1.29-.267 1.287-.268 1.284-.27 1.28-.27 1.28-.272 1.277-.274 1.274-.274 1.272-.275 1.268-.277 1.266-.277 1.263-.28 1.26-.28 1.258-.28 1.255-.282 1.252-.282 1.25-.284 1.247-.285 1.244-.288 1.24-.287 1.24-.29 1.236-.288 1.233-.29 1.23-.293 1.228-.292 1.225-.294 1.222-.295 1.22-.296 1.216-.297 1.214-.298 1.21-.3 1.21-.3 1.204-.3 1.203-.303 1.2-.304 1.196-.304 1.194-.305 1.19-.306 1.19-.306 1.184-.31 1.184-.308 1.18-.31 1.176-.31 1.174-.313 1.17-.314 1.17-.315 1.164-.315 1.162-.316 1.16-.317 1.155-.318 1.153-.32 1.15-.32 1.148-.32 1.144-.322 1.142-.323 1.138-.324 1.136-.323 1.132-.326 1.13-.325 1.126-.328 1.124-.328 1.12-.33 1.117-.33 1.115-.33 1.11-.333 1.11-.333 1.105-.333 1.102-.334 1.1-.335 1.095-.336 1.093-.337 1.09-.338 1.086-.34 1.085-.34 1.08-.34 1.078-.342 1.074-.342 1.072-.343 1.067-.344 1.065-.346 1.06-.346 1.06-.347 1.055-.346 1.053-.348 1.05-.35 1.045-.35 1.042-.35 1.04-.35 1.036-.353 1.033-.353 1.03-.354 1.027-.355 1.024-.354 1.02-.356 1.017-.357 1.014-.358 1.01-.358 1.007-.36 1.004-.36 1-.36.997-.362.994-.362.992-.363.987-.364.984-.365.98-.364.978-.366.974-.366.97-.368.97-.368.963-.37.96-.368.957-.37.954-.37.952-.373.947-.372.943-.373.94-.374.938-.374.935-.375.93-.377.927-.376.923-.377.92-.378.917-.378.913-.38.91-.38.906-.38.903-.38.9-.382.895-.382.893-.383.89-.383.884-.384.882-.385.878-.385.875-.386.87-.386.868-.387.864-.387.86-.388.857-.39.852-.388.85-.39.846-.39.843-.392.84-.392.835-.392.832-.392.828-.393.825-.394.82-.393.818-.395.814-.396.81-.396.806-.396.803-.397.8-.398.795-.4.792-.397.788-.4.784-.4.78-.4.776-.4.774-.4.77-.402.765-.4.76-.403.76-.403.754-.404.75-.404.747-.404.743-.405.74-.405.735-.406.73-.406.73-.406.723-.407.72-.407.717-.408.713-.408.71-.41.704-.408.7-.41.698-.41.694-.41.69-.41.685-.41.68-.412.678-.412.674-.412.67-.413.667-.413.66-.413.66-.412.654-.414.65-.414.647-.415.643-.415.64-.415.634-.416.63-.417.627-.416.623-.416.618-.416.615-.417.61-.418.607-.418.603-.418.6-.42.593-.417.59-.42.587-.418.583-.42.578-.42.576-.42.57-.42.566-.42.562-.42.558-.422.554-.42.55-.423.545-.42.543-.423.537-.422.534-.422.53-.422.524-.423.52-.423.517-.423.513-.423.508-.423.504-.423.5-.423.496-.424.49-.424.488-.424.484-.425.478-.424.475-.424.47-.426.468-.426.23-.21.232-.214.23-.212.227-.213.227-.214.227-.212.226-.213.224-.21.223-.214.22-.213.222-.212.22-.212.22-.213.216-.213.218-.212.215-.213.215-.213.213-.213.213-.212.21-.213.21-.213.21-.213.208-.214.208-.213.206-.213.204-.213.204-.213.202-.213.202-.212.2-.213.2-.213.197-.213.197-.214.196-.213.195-.213.195-.213.193-.213.19-.213.192-.212.19-.213.188-.214.187-.212.186-.213.186-.213.184-.213.183-.214.18-.213.182-.213.18-.213.178-.214.177-.213.177-.213.175-.213.174-.213.173-.212.17-.213.17-.213.17-.213.17-.214.167-.213.166-.213.165-.213.164-.213.163-.213.162-.212.16-.213.16-.213.16-.213.156-.214.156-.213.154-.213.154-.212.153-.213.153-.213.15-.213.15-.214.15-.212.146-.213.145-.212.145-.213.144-.212.143-.213.142-.212.14-.213.14-.213.137-.212.137-.212.136-.213.135-.212.134-.213.132-.212.13-.212.132-.213.13-.212.127-.21.128-.213.126-.212.125-.212.123-.213.122-.212.122-.212.12-.212.12-.21.117-.213.117-.21.116-.213.115-.212.114-.21.113-.213.11-.212.11-.21.11-.213.108-.21.106-.213.107-.21.104-.212.104-.212.102-.21.1-.212.1-.21.1-.212.097-.21.096-.212.094-.21.094-.212.093-.21.093-.212.09-.21.09-.21.088-.21.09-.212.085-.21.084-.21.083-.21.083-.21.08-.212.08-.21.08-.21.078-.21.077-.21.077-.21.074-.21.075-.21.072-.21.07-.21.07-.21.07-.208.067-.21.067-.21.066-.208.064-.21.063-.21.062-.208.06-.21.06-.208.058-.21.058-.208.057-.21.055-.208.053-.208.053-.21.05-.208.052-.208.05-.208.047-.21.046-.207.046-.21.044-.208.043-.208.042-.207.04-.21.04-.206.038-.207.038-.208.036-.208.035-.207.034-.208.034-.207.032-.207.03-.208.03-.207.028-.207.027-.207.027-.21.025-.206.023-.206.022-.207.022-.206.02-.207.018-.206.017-.206.017-.206.015-.207.014-.205.014-.206.012-.208.01-.206.01-.206.01-.206.006-.206.006-.206.004-.205.004-.206.003-.205v-.617l-.003-.205-.004-.214-.005-.214-.006-.214-.007-.214-.008-.213-.01-.214-.01-.213-.013-.214-.013-.213-.013-.214-.016-.214-.015-.214-.018-.214-.02-.214-.02-.214-.02-.214-.024-.215-.024-.214-.026-.214-.026-.215-.028-.215-.028-.214-.03-.214-.03-.215-.033-.214-.035-.214-.034-.216-.035-.214-.037-.215-.038-.215-.04-.214-.04-.215-.04-.214-.044-.214-.044-.215-.045-.215-.047-.215-.047-.215-.05-.215-.05-.215-.05-.215-.052-.215-.053-.215-.054-.215-.056-.216-.057-.215-.058-.214-.06-.215-.06-.215-.062-.215-.063-.216-.064-.215-.065-.216-.066-.216-.068-.215-.068-.216-.07-.216-.07-.214-.074-.216-.073-.216-.076-.215-.075-.217-.078-.216-.078-.216-.08-.215-.08-.216-.08-.217-.084-.215-.084-.216-.085-.217-.085-.216-.088-.217-.088-.216-.09-.216-.092-.215-.092-.216-.093-.218-.094-.216-.097-.216-.096-.216-.098-.217-.1-.216-.1-.215-.102-.217-.102-.216-.104-.217-.105-.216-.106-.218-.106-.216-.108-.217-.11-.217-.11-.217-.112-.217-.112-.217-.114-.217-.116-.216-.116-.217-.117-.217-.12-.216-.12-.217-.12-.217-.123-.217-.123-.217-.124-.217-.126-.217-.126-.218-.128-.216-.13-.217-.13-.218-.13-.217-.133-.217-.133-.217-.135-.215-.137-.217-.137-.217-.138-.216-.14-.217-.14-.217-.14-.217-.143-.216-.144-.217-.144-.217-.146-.217-.147-.217-.148-.218-.15-.217-.15-.217-.152-.216-.153-.217-.154-.217-.155-.217-.155-.216-.157-.217-.16-.217-.158-.216-.16-.217-.163-.217-.163-.217-.164-.217-.165-.216-.166-.217-.17-.217-.167-.217-.17-.217-.17-.217-.173-.217-.173-.218-.174-.216-.175-.217-.176-.218-.178-.216-.178-.217-.18-.217-.18-.217-.183-.216-.183-.217-.184-.216-.185-.217-.186-.216-.187-.217-.19-.216-.188-.216-.192-.216-.192-.216-.193-.217-.194-.216-.196-.217-.196-.216-.198-.217-.198-.216-.2-.216-.2-.216-.202-.216-.203-.216-.204-.216-.205-.216-.206-.216-.207-.216-.21-.216-.208-.215-.21-.216-.212-.217-.213-.216-.214-.215-.214-.216-.216-.215-.217-.215-.217-.216-.22-.216-.22-.215-.22-.217-.223-.215-.224-.215-.225-.216-.224-.215-.227-.215-.23-.215-.228-.215-.23-.215-.23-.215-.232-.215-.234-.215-.234-.214-.235-.215-.236-.215-.237-.214-.238-.216-.24-.215-.24-.215-.242-.214-.243-.214-.243-.213-.49-.43-.496-.428-.498-.428-.504-.427-.507-.428-.51-.427-.517-.427-.52-.426-.525-.427-.528-.426-.533-.427-.537-.425-.54-.426-.546-.425-.55-.424-.553-.425-.556-.424-.562-.424-.565-.423-.57-.423-.574-.423-.578-.42-.582-.424-.586-.42-.59-.423-.595-.42-.598-.422-.602-.42-.607-.42-.61-.42-.615-.418-.618-.42-.622-.418-.627-.418-.63-.418-.634-.417-.64-.416-.642-.417-.646-.416-.65-.415-.654-.415-.658-.415-.662-.415-.666-.414-.67-.413-.674-.414-.677-.413-.68-.413-.686-.412-.69-.41-.692-.412-.697-.41-.7-.41-.705-.41-.71-.41-.71-.41-.717-.407-.72-.408-.724-.407-.728-.407-.73-.405-.736-.406-.74-.406-.742-.405-.746-.405-.75-.404-.754-.402-.757-.403-.76-.402-.766-.4-.768-.403-.772-.4-.777-.4-.78-.4-.783-.4-.787-.397-.79-.398-.795-.397-.798-.397-.802-.395-.805-.395-.81-.395-.812-.395-.815-.393-.82-.394-.823-.392-.827-.39-.83-.393-.835-.39-.837-.39-.842-.39-.844-.39-.848-.388-.852-.388-.855-.387-.858-.387-.863-.386-.867-.385-.87-.384-.872-.384-.875-.384-.88-.383-.884-.382-.885-.38-.89-.38-.894-.38-.897-.38-.9-.378-.904-.378-.91-.377-.91-.377-.914-.375-.917-.376-.922-.375-.925-.374-.927-.37-.932-.374-.934-.37-.938-.372-.94-.37-.946-.37-.947-.368-.952-.368-.955-.367-.958-.365-.96-.366-.965-.366-.968-.364-.97-.364-.975-.362-.977-.362-.98-.36-.985-.36-.987-.36-.99-.36-.994-.357-.996-.358-1-.356-1.004-.355-1.006-.354-1.01-.353-1.012-.353-1.016-.353-1.02-.35-1.02-.35-1.027-.35-1.028-.35-1.032-.348-1.035-.347-1.037-.347-1.04-.345-1.044-.345-1.048-.344-1.05-.343-1.053-.342-1.056-.34-1.06-.342-1.063-.34-1.066-.338-1.068-.338-1.07-.337-1.076-.336-1.077-.335-1.082-.335-1.084-.333-1.086-.333-1.09-.33-1.093-.33-1.095-.33-1.1-.33-1.1-.328-1.105-.327-1.107-.326-1.11-.327-1.114-.324-1.116-.324-1.12-.323-1.12-.32-1.126-.322-1.128-.318-1.13-.32-1.134-.317-1.137-.316-1.14-.317-1.14-.315-1.146-.314-1.148-.312-1.152-.312-1.153-.31-1.156-.31-1.16-.31-1.162-.308-1.165-.306-1.168-.306-1.17-.305-1.173-.304-1.176-.302-1.178-.302-1.182-.3-1.184-.3-1.186-.3-1.19-.297-1.192-.297-1.195-.296-1.2-.294-1.2-.294-1.202-.293-1.206-.292-1.208-.29-1.21-.29-1.215-.288-1.217-.287-1.22-.286-1.22-.285-1.225-.285-1.227-.282-1.23-.282-1.23-.28-1.235-.28-1.238-.278-1.24-.277-1.242-.276-1.245-.276-1.248-.274-1.25-.273-1.252-.272-1.256-.27-1.257-.27-1.26-.27-1.264-.266-1.265-.267-1.268-.265-1.27-.264-1.273-.262-1.275-.262-1.278-.26-1.28-.26-1.283-.257-1.284-.257-1.287-.256-1.29-.254-1.294-.253-1.295-.252-1.296-.25-1.3-.25-1.302-.248-1.304-.248-1.307-.246-1.308-.245-1.312-.243-1.314-.243-1.316-.24-1.32-.24-1.32-.24-1.323-.238-1.326-.237-1.327-.235-1.33-.234-1.333-.232-1.335-.232-1.337-.23-1.34-.23-1.34-.226-1.345-.227-1.346-.225-1.35-.223-1.35-.224-1.353-.22-1.355-.22-1.358-.22-1.36-.217-1.362-.217-1.364-.215-1.366-.213-1.368-.212-1.37-.21-1.374-.21-1.375-.21-1.377-.206-1.38-.206-1.38-.203-1.384-.203-1.385-.2-1.388-.202-1.39-.2-1.393-.196-1.394-.196-1.396-.195-1.398-.194-1.4-.19-1.404-.192-1.404-.19-1.407-.187-1.408-.186-1.41-.185-1.413-.185-1.415-.183-1.417-.18-1.42-.18-1.42-.18-1.422-.176-1.424-.175-1.426-.173-1.43-.173-1.43-.17-1.43-.17-1.436-.17-1.436-.167-1.438-.165-1.44-.165-1.442-.162-1.444-.162-1.446-.16-1.448-.158-1.45-.157-1.45-.155-1.455-.154-1.455-.154-1.457-.15-1.46-.15-1.46-.15-1.462-.146-1.464-.145-1.466-.143-1.468-.143-1.47-.14-1.472-.14-1.473-.138-1.476-.137-1.476-.134-1.48-.133-1.48-.13-1.482-.13-1.484-.13-1.485-.127-1.488-.126-1.49-.124-1.49-.122-1.493-.12-1.494-.12-1.496-.12-1.498-.115-1.5-.115-1.5-.113-1.504-.112-1.504-.11-1.506-.108-1.508-.107-1.51-.105-1.51-.104-1.513-.104-1.515-.1-1.516-.1-1.518-.097-1.52-.096-1.52-.095-1.522-.093-1.524-.09-1.525-.09-1.526-.088-1.53-.088-1.528-.084-1.532-.083-1.533-.08-1.533-.08-1.536-.08-1.537-.075-1.54-.075-1.54-.073-1.54-.07-1.545-.07-1.545-.07-1.546-.066-1.548-.064-1.55-.063-1.55-.063-1.553-.06-1.554-.057-1.554-.057-1.558-.054-1.558-.054-1.56-.052-1.56-.05-1.56-.047-1.564-.046-1.565-.043-1.566-.043-1.568-.04-1.57-.04-1.57-.038-1.57-.036-1.573-.034-1.575-.032-1.575-.03-1.577-.03-1.577-.026-1.58-.026-1.58-.023-1.58-.023-1.584-.02-1.584-.018-1.586-.018-1.586-.015-1.588-.012-1.59-.012-1.59-.01-.91-.003-.913-.004-.918-.003-.922-.002H490.533l-.938.002-.942.002-.947.003-.95.004-.955.005-.958.006-.962.007-.966.007-.97.008-1.952.018-1.967.02-1.982.025-1.996.027-2.013.03-2.025.034-2.04.036-2.054.04-2.068.04-2.082.046-2.095.048-2.108.05-2.122.054-2.134.057-2.148.06-2.16.06-2.172.066-2.185.067-2.196.07-2.21.073-2.22.075-2.23.078-2.242.08-2.254.084-2.264.086-2.275.088-2.286.09-2.297.094-2.306.095-2.316.098-2.324.1-2.336.104-2.344.105-2.354.106-2.363.11-2.372.11-2.38.115-2.39.117-2.396.12-2.405.12-2.413.12-2.42.126-2.428.127-2.435.13-2.442.13-2.45.132-2.455.135-2.463.136-2.47.14-2.474.14-2.48.14-2.488.145-2.493.146-2.498.148-2.504.15-2.508.15-2.513.153-2.518.155-2.523.156-2.525.157-2.53.16-2.536.16-2.54.163-2.542.164-2.546.166-2.548.166-2.552.17-2.555.168-2.557.172-2.56.172-2.56.174-2.565.175-2.566.177-2.57.177-2.568.18-2.57.18-2.57.18-2.574.183-2.573.184-2.574.184-2.573.186-2.574.187-2.575.19-2.574.188-2.574.19-2.573.19-2.572.192-2.572.192-2.57.194-2.57.194-2.567.195-2.566.196-2.564.197-2.563.198-2.56.198-2.557.2-2.555.198-2.55.2-2.55.202-2.546.2-2.542.203-2.54.202-2.535.203-2.53.203-2.528.204-2.524.204-2.52.206-2.512.205-5.013.412-4.99.412-4.97.413-4.947.414-4.92.415-4.893.415-4.865.415-4.836.415-4.804.415-4.77.414-4.738.413-4.7.412-4.664.412-4.624.41-4.584.41-4.543.406-4.5.405-4.453.403-4.407.4-4.36.4-4.31.395-4.26.392-4.208.39-4.154.385-4.097.383-4.04.378-3.985.374-3.923.37-3.862.367-3.8.36-3.735.357-3.67.353-3.6.346-3.534.34-3.463.335-3.39.33-3.318.322-3.243.317-3.17.31-3.088.304-3.01.297-2.93.29-2.846.282-2.763.274-5.27.528-4.916.493-4.552.46-4.175.424-3.786.386-3.386.347-2.973.306-2.548.263-2.11.22-2.5.26v248.296l2.482.23 2.112.193 2.55.233 2.973.27 3.386.308 3.79.34 4.175.375 4.553.407 4.92.436 5.27.465 2.764.242 2.848.25 2.93.255 3.01.262 3.09.267 3.17.274 3.243.28 3.32.284 3.39.29 3.465.295 3.534.3 3.603.305 3.67.31 3.736.313 3.802.317 3.863.322 3.924.326 3.983.33 4.043.33 4.1.337 4.154.34 4.208.34 4.26.345 4.313.346 4.362.35 4.408.35 4.455.354 4.5.355 4.543.356 4.585.358 4.626.36 4.663.36 4.7.36 4.74.362 4.77.36 4.805.363 4.836.362 4.866.362 4.894.36 4.92.362 4.947.36 4.972.36 4.992.358 5.014.357 5.033.356 5.052.354 2.53.177 2.537.175 2.538.175 2.543.175 2.547.174 2.55.174 2.552.173 2.554.174 2.557.17 2.562.173 2.562.17 2.564.17 2.566.17 2.568.168 2.57.167 2.57.167 2.572.165 2.573.165 2.573.164 2.574.164 2.574.162 2.575.162 2.574.16 2.574.16 2.575.158 2.573.157 2.573.157 2.572.155 2.57.153 2.57.153 2.567.152 2.565.15 2.564.15 2.56.15 2.56.146 2.557.146 2.555.144 2.552.144 2.548.14 2.546.142 2.542.14 2.538.137 2.535.136 2.53.135 2.527.133 2.522.133 2.518.13 2.513.13 2.508.126 2.504.125 2.498.124 2.493.12 2.486.122 2.482.12 2.475.116 2.47.115 2.46.114 2.457.112 2.45.11 2.44.108 2.436.106 2.427.105 2.42.1 2.413.102 2.404.1 2.397.096 2.39.095 2.378.092 2.37.09 2.364.09 2.353.087 2.344.084 2.334.083 2.325.08 2.314.077 2.305.076 2.294.073 2.285.072 2.274.07 2.263.066 2.253.064 2.242.062 2.23.06 2.22.058 2.207.055 2.194.052 2.184.05 2.17.048 2.16.045 2.146.043 2.134.04 2.12.038 2.108.035 2.094.032 2.08.03 2.067.027 2.053.024 2.04.02 2.024.02 2.01.016 1.996.013 1.98.01 1.966.008 1.95.005 1.935.002z" fill="#BFBFBF"/><g fill="#F2F2F2" stroke-width="2" stroke-linecap="butt" stroke-linejoin="miter" stroke="#CCC"><path d="M608.196 327.92c.544-5.294-3.305-10.025-8.598-10.57l-50.733-5.21c-5.292-.545-10.023 3.305-10.567 8.597-.544 5.293 3.306 10.024 8.598 10.568l50.733 5.212c5.29.544 10.023-3.306 10.566-8.598z"/><path d="M609.702 313.263c.544-5.293-3.306-10.024-8.598-10.568l-50.733-5.212c-5.29-.544-10.023 3.306-10.566 8.598-.544 5.294 3.305 10.025 8.598 10.57l50.733 5.21c5.292.545 10.023-3.305 10.567-8.597z"/></g><g fill="#F2F2F2" stroke-width="2" stroke-linecap="butt" stroke-linejoin="miter" stroke="#CCC"><path d="M607.95 12.65c.544 5.292-3.306 10.023-8.598 10.567L548.62 28.43c-5.294.543-10.025-3.306-10.57-8.6-.543-5.29 3.307-10.023 8.6-10.566l50.732-5.213c5.293-.543 10.024 3.307 10.568 8.6z"/><path d="M609.456 27.306c.543 5.292-3.306 10.023-8.6 10.567l-50.732 5.213c-5.292.543-10.023-3.306-10.567-8.6-.544-5.29 3.306-10.022 8.598-10.566l50.733-5.213c5.293-.543 10.024 3.306 10.568 8.6z"/></g><circle cx="781.5" cy="174.5" r="106.5" fill="none" stroke-width="5" stroke="#999"/><ellipse cx="778.5" cy="174.203" rx="61.5" ry="61.873" fill="#999"/><path d="M756.974 243.824c-35.244-40.175-35.723-106.15 1.063-140l72.69 35.56-.532 70-73.22 34.44" fill="#CCC"/><clipPath id="c"><path d="M756.974 243.824c-35.244-40.175-35.723-106.15 1.063-140l72.69 35.56-.532 70-73.22 34.44"/></clipPath><g clip-path="url(#c)"><path d="M835.924 166.586l-60.796-.467-.114 14.998 60.796.468.114-15z" fill="#4D4D4D"/><path d="M838.787 184.61l-66.796-.515.16-21h.002l66.795.514-.16 20.998zm-2.977-3.024l.114-15-60.796-.467-.114 14.998 60.796.468z" fill="#B3B3B3"/></g><path d="M756.974 243.824c-35.244-40.175-35.723-106.15 1.063-140l72.69 35.56-.532 70-73.22 34.44" fill="none" stroke-width="3" stroke="#E6E6E6"/><path d="M939.058 171.715L778 169.35v8.648l161.058-.348v-5.935z" fill="#E6E6E6"/><circle cx="923.5" cy="142.5" r="10.5" fill="#404040"/><path d="M923.5 154.5h-.155l-.154-.004-.153-.005-.153-.006-.153-.008-.152-.01-.152-.013-.15-.015-.152-.016-.15-.018-.15-.02-.15-.022-.148-.024-.148-.025-.148-.028-.147-.03-.146-.03-.146-.032-.144-.035-.144-.036-.143-.038-.144-.04-.142-.04-.142-.044-.14-.044-.14-.047-.14-.05-.138-.05-.137-.05-.137-.053-.136-.054-.135-.057-.136-.057-.133-.06-.132-.062-.13-.062-.132-.064-.13-.066-.13-.067-.127-.07-.128-.07-.126-.07-.125-.074-.123-.074-.124-.076-.122-.077-.12-.08-.12-.08-.12-.082-.118-.083-.117-.084-.116-.085-.116-.087-.114-.088-.112-.09-.112-.09-.11-.093-.11-.094-.108-.095-.107-.096-.105-.097-.104-.1-.103-.1-.102-.1-.1-.102-.1-.104-.1-.105-.097-.106-.096-.108-.096-.11-.093-.108-.092-.11-.09-.112-.09-.113-.088-.114-.087-.115-.086-.115-.085-.117-.083-.118-.082-.12-.08-.12-.08-.12-.076-.123-.076-.123-.074-.125-.073-.126-.07-.126-.07-.127-.07-.127-.067-.13-.065-.13-.064-.13-.062-.13-.06-.134-.06-.134-.058-.135-.057-.134-.054-.136-.053-.137-.05-.137-.05-.138-.05-.14-.045-.14-.045-.14-.043-.142-.042-.142-.04-.142-.037-.144-.036-.144-.035-.145-.032-.147-.03-.146-.03-.147-.028-.147-.025-.15-.024-.147-.022-.15-.02-.15-.018-.15-.016-.15-.015-.152-.012-.152-.01-.153-.01-.153-.006-.154-.006-.154-.003-.155v-.31l.004-.154.005-.153.006-.154.008-.152.01-.152.013-.152.015-.15.016-.152.018-.15.02-.15.022-.15.024-.148.025-.15.028-.146.03-.147.03-.146.032-.145.035-.146.036-.144.038-.144.04-.142.04-.142.044-.142.045-.14.046-.14.05-.14.05-.138.05-.137.053-.137.054-.136.057-.135.057-.136.06-.133.062-.132.062-.132.064-.13.065-.13.068-.13.07-.127.07-.128.07-.126.074-.125.074-.124.076-.123.077-.122.08-.12.08-.12.082-.12.083-.118.084-.117.085-.116.087-.116.088-.113.09-.112.09-.112.093-.11.094-.11.095-.108.096-.107.097-.105.1-.104.1-.103.1-.102.102-.1.104-.1.105-.1.106-.097.108-.096.108-.095.11-.094.11-.092.112-.09.113-.09.114-.088.115-.087.115-.086.117-.085.118-.083.12-.082.12-.08.12-.08.123-.076.123-.076.125-.074.126-.073.126-.07.127-.07.127-.07.13-.066.13-.066.13-.064.13-.062.134-.06.134-.06.135-.058.134-.057.136-.054.136-.053.138-.05.138-.05.14-.05.14-.046.14-.044.142-.043.142-.042.143-.04.142-.037.144-.036.145-.035.147-.032.146-.03.147-.03.147-.028.15-.025.147-.024.15-.022.15-.02.15-.018.15-.016.152-.015.152-.012.153-.01.154-.01.153-.006.154-.006.155-.003h.31l.154.004.153.005.153.006.153.008.152.01.152.013.15.015.152.016.15.018.15.02.15.022.148.024.15.025.146.028.147.03.146.03.146.032.144.035.144.036.143.038.144.04.142.04.142.044.14.044.14.047.14.05.138.05.138.05.136.053.136.054.135.057.136.057.133.06.132.062.13.062.132.064.13.066.13.067.127.07.128.07.126.07.125.074.124.074.123.076.122.077.12.08.12.08.12.082.118.083.117.084.116.085.116.087.113.088.112.09.112.09.11.093.11.094.108.095.107.096.105.097.104.1.103.1.102.1.1.102.1.104.1.105.097.106.096.108.095.11.094.108.092.11.09.112.09.113.088.114.087.115.086.115.085.117.083.12.082.118.08.12.08.12.076.123.076.123.074.125.073.126.07.126.07.127.07.127.066.13.066.13.064.13.062.13.06.134.06.134.058.135.057.134.054.136.053.137.05.137.05.138.05.14.046.14.044.14.043.142.042.142.04.142.037.144.036.144.035.145.032.147.03.146.03.147.028.147.025.15.024.147.022.15.02.15.018.15.016.15.015.153.012.15.01.154.01.153.006.154.006.154.003.155v.31l-.004.154-.005.153-.006.154-.008.152-.01.152-.013.15-.015.153-.016.15-.018.152-.02.15-.022.15-.024.147-.025.15-.028.146-.03.147-.03.146-.032.146-.035.144-.036.144-.038.144-.04.142-.04.142-.044.142-.044.14-.047.14-.05.14-.05.138-.05.137-.053.137-.054.136-.057.135-.057.136-.06.133-.062.132-.062.132-.064.13-.066.13-.067.13-.07.127-.07.128-.07.126-.074.125-.074.124-.076.123-.077.122-.08.12-.08.12-.082.12-.083.118-.084.117-.085.116-.087.116-.088.113-.09.112-.09.112-.093.11-.093.11-.096.108-.096.107-.097.105-.1.104-.1.103-.1.102-.102.102-.104.1-.105.098-.106.097-.108.096-.108.095-.11.094-.11.092-.112.09-.113.09-.114.088-.115.087-.115.086-.117.085-.12.083-.118.082-.12.08-.12.08-.123.076-.124.076-.124.074-.126.073-.126.07-.127.07-.127.07-.13.066-.13.066-.13.064-.13.062-.134.06-.134.06-.135.058-.134.057-.136.054-.137.053-.137.05-.138.05-.14.05-.14.046-.14.044-.142.043-.142.042-.143.04-.142.037-.144.036-.145.035-.147.032-.146.03-.147.03-.148.028-.148.025-.148.024-.15.022-.15.02-.15.018-.15.016-.152.015-.152.012-.153.01-.154.01-.153.006-.154.006-.155.003h-.155zm0-3h.117l.116-.003.116-.004.114-.005.115-.006.114-.008.114-.01.114-.01.113-.013.113-.012.113-.015.112-.017.112-.018.11-.02.11-.02.11-.02.11-.024.11-.024.108-.026.108-.027.108-.03.107-.028.106-.032.107-.032.105-.034.105-.035.104-.036.105-.036.103-.038.102-.04.102-.04.1-.043.1-.043.1-.044.1-.046.1-.047.097-.048.096-.05.097-.05.096-.05.094-.053.095-.053.093-.056.093-.056.092-.057.092-.057.09-.06.09-.06.09-.06.09-.063.087-.063.087-.064.086-.066.086-.066.084-.066.084-.07.083-.068.082-.07.08-.07.08-.074.08-.073.08-.075.077-.075.077-.076.076-.077.075-.078.074-.08.072-.08.073-.08.07-.08.07-.083.07-.083.07-.084.066-.084.068-.086.065-.086.064-.087.063-.088.062-.09.062-.09.06-.09.06-.09.057-.092.058-.092.056-.094.054-.093.054-.096.053-.095.05-.097.05-.097.05-.097.048-.1.047-.098.046-.1.044-.1.043-.1.042-.1.04-.102.04-.102.04-.104.036-.103.037-.103.035-.105.034-.105.032-.106.03-.105.03-.107.03-.107.026-.108.026-.108.024-.11.023-.11.022-.11.02-.11.018-.11.018-.112.017-.11.015-.114.013-.113.013-.113.01-.114.01-.114.01-.115.005-.116.005-.115.004-.117.002-.116v-.234l-.003-.116-.004-.116-.005-.114-.006-.115-.008-.114-.01-.114-.01-.114-.013-.113-.012-.113-.015-.113-.017-.112-.018-.112-.02-.11-.02-.11-.02-.11-.024-.11-.024-.11-.026-.108-.027-.11-.03-.106-.028-.107-.032-.106-.032-.107-.034-.105-.035-.105-.036-.104-.036-.104-.038-.104-.04-.102-.04-.1-.043-.103-.043-.1-.044-.1-.046-.1-.047-.098-.048-.1-.05-.096-.05-.097-.05-.096-.053-.094-.054-.095-.054-.092-.056-.094-.057-.092-.057-.092-.06-.09-.06-.09-.06-.09-.063-.09-.063-.087-.064-.087-.065-.086-.067-.086-.066-.084-.07-.084-.068-.083-.07-.082-.07-.08-.074-.08-.073-.08-.075-.08-.075-.077-.076-.077-.077-.076-.078-.075-.08-.074-.08-.072-.08-.073-.08-.07-.083-.07-.083-.07-.084-.07-.084-.066-.086-.067-.086-.066-.087-.064-.088-.063-.09-.063-.09-.06-.09-.06-.09-.06-.092-.058-.092-.058-.093-.056-.094-.055-.096-.052-.095-.053-.097-.05-.097-.05-.097-.05-.1-.048-.097-.047-.1-.046-.1-.044-.1-.043-.1-.042-.103-.04-.102-.04-.103-.04-.104-.037-.103-.035-.105-.035-.105-.034-.106-.032-.105-.03-.107-.03-.108-.03-.108-.026-.108-.026-.11-.024-.11-.023-.11-.022-.11-.02-.11-.018-.11-.018-.113-.017-.112-.015-.113-.013-.113-.013-.114-.01-.114-.01-.115-.01-.116-.005-.115-.005-.117-.004-.116-.002h-.234l-.116.003-.116.004-.114.005-.115.006-.114.008-.114.01-.114.01-.113.013-.113.012-.113.015-.113.017-.11.018-.112.02-.11.02-.11.02-.11.024-.11.024-.107.026-.108.027-.108.03-.107.028-.106.032-.107.032-.105.034-.105.035-.104.035-.105.038-.103.038-.102.04-.102.04-.1.043-.1.043-.1.044-.1.046-.1.047-.097.048-.096.05-.097.05-.096.05-.094.053-.095.053-.093.056-.093.056-.092.057-.092.057-.09.06-.09.06-.09.06-.09.063-.087.063-.087.064-.086.066-.086.066-.084.066-.084.07-.083.068-.082.07-.08.07-.08.074-.08.073-.08.075-.077.075-.077.076-.076.077-.075.078-.074.08-.072.08-.073.08-.07.08-.07.083-.07.083-.07.084-.066.084-.068.086-.065.086-.064.087-.063.088-.063.09-.06.09-.06.09-.06.09-.058.092-.058.092-.056.094-.054.093-.054.096-.053.095-.05.097-.05.096-.05.098-.048.1-.047.098-.046.1-.044.1-.043.1-.042.1-.04.102-.04.102-.04.104-.036.103-.037.103-.035.105-.034.105-.032.106-.03.105-.03.107-.03.108-.026.108-.025.108-.024.11-.023.11-.022.11-.02.11-.018.11-.018.112-.017.112-.015.112-.013.113-.013.113-.01.114-.01.114-.01.114-.005.116-.005.115-.004.117-.002.116v.234l.003.116.004.116.005.114.006.116.008.114.01.114.01.114.013.113.012.113.015.112.017.112.018.112.02.11.02.11.02.11.024.11.024.11.026.108.027.108.03.108.028.107.032.106.032.107.034.105.035.105.036.104.036.104.038.104.04.102.04.1.043.103.043.1.044.1.046.1.047.098.048.1.05.097.05.096.05.096.053.094.054.095.054.092.056.094.057.092.057.092.06.09.06.09.06.09.063.09.063.087.064.087.065.086.067.086.066.084.07.084.068.083.07.082.07.08.074.08.073.08.075.08.075.077.076.077.077.076.078.075.08.074.08.072.08.073.08.07.083.07.083.07.084.07.084.066.086.067.086.066.087.064.088.063.09.063.09.06.09.06.09.06.092.058.092.058.093.056.094.055.096.052.095.053.097.05.097.05.097.05.1.048.098.047.1.046.1.044.1.043.1.042.102.04.102.04.103.04.104.036.103.037.105.035.105.034.106.032.105.03.107.03.108.03.108.026.108.026.11.024.11.023.11.022.11.02.11.018.112.018.11.017.114.015.113.013.113.013.114.01.114.01.115.01.116.005.115.005.117.004.116.002h.117z" fill="#C69264"/><circle cx="923.5" cy="204.5" r="10.5" fill="#404040"/><path d="M923.5 216.5h-.155l-.154-.004-.153-.005-.153-.006-.153-.008-.152-.01-.152-.013-.15-.015-.152-.016-.15-.018-.15-.02-.15-.022-.148-.024-.15-.025-.146-.028-.147-.03-.146-.03-.146-.032-.144-.035-.144-.036-.143-.038-.144-.04-.142-.04-.142-.044-.14-.044-.14-.047-.14-.05-.138-.05-.138-.05-.136-.053-.136-.054-.135-.057-.136-.057-.133-.06-.132-.062-.13-.062-.132-.064-.13-.066-.13-.067-.127-.07-.128-.07-.126-.07-.125-.074-.123-.074-.124-.076-.122-.077-.12-.08-.12-.08-.12-.082-.118-.083-.117-.084-.115-.085-.116-.087-.114-.088-.112-.09-.112-.09-.11-.093-.11-.094-.108-.095-.107-.096-.105-.097-.104-.1-.103-.1-.102-.1-.1-.102-.1-.104-.1-.105-.097-.106-.096-.108-.096-.11-.093-.108-.092-.11-.09-.112-.09-.113-.088-.114-.087-.115-.086-.115-.085-.117-.083-.118-.082-.12-.08-.12-.08-.12-.076-.123-.076-.123-.074-.125-.073-.126-.07-.126-.07-.127-.07-.127-.067-.13-.065-.13-.064-.13-.062-.13-.06-.134-.06-.134-.058-.135-.057-.134-.054-.136-.053-.137-.05-.137-.05-.138-.05-.14-.046-.14-.044-.14-.043-.142-.042-.142-.04-.142-.037-.144-.036-.144-.035-.145-.032-.147-.03-.146-.03-.147-.028-.147-.025-.15-.024-.147-.022-.15-.02-.15-.018-.15-.016-.15-.015-.152-.012-.152-.01-.153-.01-.153-.006-.154-.006-.154-.003-.155v-.31l.004-.154.005-.153.006-.154.008-.152.01-.152.013-.152.015-.15.016-.152.018-.15.02-.15.022-.15.024-.148.025-.15.028-.146.03-.147.03-.146.032-.146.035-.144.036-.144.038-.144.04-.142.04-.142.044-.142.045-.14.046-.14.05-.14.05-.138.05-.137.053-.137.054-.136.057-.135.057-.136.06-.133.062-.132.062-.132.064-.13.065-.13.068-.13.07-.127.07-.128.07-.126.074-.126.074-.124.076-.123.077-.122.08-.12.08-.12.082-.12.083-.118.084-.117.085-.116.087-.116.088-.113.09-.112.09-.112.093-.11.093-.11.096-.108.096-.107.097-.105.1-.104.1-.103.1-.102.102-.1.104-.1.105-.1.106-.097.108-.096.108-.095.11-.094.11-.092.112-.09.112-.09.114-.088.115-.087.115-.086.117-.085.118-.083.12-.082.12-.08.12-.08.123-.076.124-.076.124-.074.126-.073.126-.07.127-.07.127-.07.13-.066.13-.066.13-.064.13-.062.134-.06.134-.06.135-.058.134-.057.136-.054.137-.053.137-.05.138-.05.14-.05.14-.046.14-.044.142-.043.142-.042.143-.04.142-.037.144-.036.145-.035.147-.032.146-.03.147-.03.148-.028.148-.025.148-.024.15-.022.15-.02.15-.018.15-.016.152-.015.152-.012.153-.01.154-.01.153-.006.154-.006.155-.003h.31l.154.004.153.005.153.006.153.008.152.01.152.013.15.015.152.016.15.018.15.02.15.022.148.024.148.025.148.028.147.03.146.03.146.032.144.035.144.036.143.038.144.04.142.04.142.044.14.044.14.047.14.05.138.05.137.05.137.053.136.054.135.057.136.057.133.06.132.062.13.062.132.064.13.066.13.067.127.07.128.07.126.07.125.074.123.074.124.076.122.077.12.08.12.08.12.082.118.083.117.084.116.085.116.087.113.088.112.09.112.09.11.093.11.094.108.095.107.096.105.097.104.1.103.1.102.1.1.102.1.104.1.105.097.106.096.108.096.11.093.108.092.11.09.112.09.113.088.114.087.115.086.115.085.117.083.12.082.118.08.12.08.12.076.123.076.123.074.124.073.126.07.126.07.127.07.127.066.13.066.13.064.13.062.13.06.134.06.134.058.135.057.134.054.136.053.137.05.137.05.138.05.14.046.14.044.14.043.142.042.142.04.142.037.144.036.144.035.145.032.147.03.146.03.147.028.147.025.15.024.147.022.15.02.15.018.15.016.15.015.153.012.15.01.154.01.153.006.154.006.154.003.155v.31l-.004.154-.005.153-.006.154-.008.152-.01.152-.013.15-.015.153-.016.15-.018.15-.02.15-.022.15-.024.15-.025.148-.028.147-.03.147-.03.146-.032.146-.035.144-.036.144-.038.144-.04.142-.04.142-.044.142-.044.14-.047.14-.05.14-.05.138-.05.137-.053.137-.054.136-.057.135-.057.136-.06.133-.062.132-.062.132-.064.13-.066.13-.067.13-.07.127-.07.128-.07.126-.074.125-.074.124-.076.123-.077.122-.08.12-.08.12-.082.12-.083.118-.084.117-.085.116-.087.116-.088.113-.09.112-.09.112-.093.11-.093.11-.096.108-.096.107-.097.105-.1.104-.1.103-.1.102-.102.1-.104.1-.105.1-.106.097-.108.096-.108.095-.11.094-.11.092-.112.09-.113.09-.114.088-.115.087-.115.086-.117.085-.12.083-.118.082-.12.08-.12.08-.123.076-.124.076-.124.074-.126.073-.126.07-.127.07-.127.07-.13.066-.13.066-.13.064-.13.062-.134.06-.134.06-.135.058-.134.057-.136.054-.136.053-.138.05-.138.05-.14.05-.14.046-.14.044-.142.043-.142.042-.143.04-.142.037-.144.036-.145.035-.147.032-.146.03-.147.03-.147.028-.15.025-.147.024-.15.022-.15.02-.15.018-.15.016-.152.015-.152.012-.153.01-.154.01-.153.006-.154.006-.155.003h-.155zm0-3h.117l.116-.003.116-.004.114-.005.115-.006.114-.008.114-.01.114-.01.113-.013.113-.012.113-.015.112-.017.112-.018.11-.02.11-.02.112-.02.11-.024.108-.024.108-.026.108-.027.108-.03.107-.028.106-.032.107-.032.105-.034.105-.035.104-.035.104-.038.103-.038.103-.04.102-.04.1-.043.1-.043.1-.044.1-.046.1-.047.097-.048.096-.05.097-.05.096-.05.094-.053.095-.053.093-.056.093-.056.092-.057.092-.057.09-.06.09-.06.09-.06.09-.063.087-.063.087-.064.086-.066.086-.066.084-.066.084-.07.083-.068.082-.07.08-.072.08-.072.08-.073.08-.075.077-.075.077-.076.076-.077.075-.078.074-.08.072-.08.073-.08.07-.08.07-.083.07-.083.07-.084.066-.084.068-.086.065-.086.064-.087.063-.088.062-.09.062-.09.06-.09.06-.09.057-.092.058-.092.056-.094.054-.093.054-.096.053-.095.05-.097.05-.097.05-.097.048-.1.047-.098.046-.1.044-.1.043-.1.042-.1.04-.102.04-.102.04-.104.036-.103.037-.103.035-.105.034-.105.032-.106.03-.105.03-.107.03-.107.026-.108.026-.108.024-.11.023-.11.022-.11.02-.11.018-.11.018-.112.017-.11.015-.114.013-.113.013-.113.01-.114.01-.114.01-.115.005-.116.005-.115.004-.117.002-.116v-.234l-.003-.116-.004-.116-.005-.114-.006-.115-.008-.114-.01-.114-.01-.114-.013-.113-.012-.113-.015-.113-.017-.112-.018-.112-.02-.11-.02-.11-.02-.11-.024-.11-.024-.11-.026-.108-.027-.11-.03-.106-.028-.107-.032-.106-.032-.107-.034-.105-.035-.105-.036-.104-.036-.104-.038-.104-.04-.102-.04-.1-.043-.103-.043-.1-.044-.1-.046-.1-.047-.098-.048-.1-.05-.096-.05-.097-.05-.096-.053-.094-.054-.095-.054-.092-.056-.094-.057-.092-.057-.092-.06-.09-.06-.09-.06-.09-.063-.09-.063-.087-.064-.087-.065-.086-.067-.086-.066-.084-.07-.084-.068-.083-.07-.082-.07-.08-.074-.08-.073-.08-.075-.08-.075-.077-.076-.077-.077-.076-.078-.075-.08-.074-.08-.072-.08-.072-.08-.072-.083-.07-.083-.07-.084-.068-.084-.067-.086-.067-.086-.066-.087-.064-.088-.063-.09-.063-.09-.06-.09-.06-.09-.06-.092-.058-.092-.058-.093-.056-.094-.055-.096-.052-.095-.053-.097-.05-.097-.05-.097-.05-.1-.048-.098-.047-.1-.046-.1-.044-.1-.043-.1-.042-.102-.04-.102-.04-.103-.04-.104-.036-.103-.037-.105-.035-.105-.034-.106-.032-.105-.03-.107-.03-.108-.03-.108-.026-.108-.026-.11-.024-.11-.023-.11-.022-.11-.02-.11-.018-.112-.018-.11-.017-.114-.015-.113-.013-.113-.013-.114-.01-.114-.01-.115-.01-.116-.005-.115-.005-.117-.004-.116-.002h-.234l-.116.003-.116.004-.114.005-.116.006-.114.008-.114.01-.114.01-.113.013-.113.012-.113.015-.112.017-.112.018-.11.02-.11.02-.11.02-.11.024-.11.024-.108.026-.108.027-.108.03-.107.028-.106.032-.107.032-.105.034-.105.035-.104.036-.105.036-.103.038-.102.04-.102.04-.1.043-.1.043-.1.044-.1.046-.1.047-.097.048-.096.05-.097.05-.096.05-.094.053-.095.053-.093.056-.093.056-.092.057-.092.057-.09.06-.09.06-.09.06-.09.063-.087.063-.087.064-.086.066-.086.066-.084.066-.084.07-.083.068-.082.07-.08.072-.08.072-.08.073-.08.075-.077.075-.077.076-.076.077-.075.078-.074.08-.072.08-.073.08-.07.08-.07.083-.07.083-.07.084-.066.084-.068.086-.065.086-.064.087-.063.088-.063.09-.06.09-.06.09-.06.09-.058.092-.058.092-.056.094-.054.093-.054.096-.053.095-.05.097-.05.096-.05.098-.048.1-.047.098-.046.1-.044.1-.043.1-.042.1-.04.102-.04.102-.04.104-.036.103-.037.103-.035.105-.034.105-.032.106-.03.105-.03.107-.03.108-.026.108-.026.108-.024.11-.023.11-.022.11-.02.11-.018.11-.018.112-.017.112-.015.112-.013.113-.013.113-.01.114-.01.114-.01.114-.005.116-.005.115-.004.117-.002.116v.234l.003.116.004.116.005.114.006.116.008.114.01.114.01.114.013.113.012.113.015.112.017.112.018.112.02.11.02.11.02.11.024.11.024.11.026.108.027.108.03.108.028.107.032.106.032.107.034.105.035.105.036.104.036.104.038.104.04.102.04.1.043.103.043.1.044.1.046.1.047.098.048.1.05.097.05.096.05.096.053.094.054.095.054.092.056.094.057.092.057.092.06.09.06.09.06.09.063.09.063.087.064.087.065.086.067.086.066.084.07.084.068.083.07.082.07.08.074.08.073.08.075.08.075.077.076.077.077.076.078.075.08.074.08.072.08.072.08.072.083.07.083.07.084.068.084.067.086.067.086.066.087.064.088.063.09.063.09.06.09.06.09.06.092.058.092.058.093.056.094.055.096.052.095.053.097.05.097.05.097.05.1.048.098.047.1.046.1.044.1.043.1.042.102.04.103.04.103.04.103.037.103.035.105.035.105.034.106.032.105.03.107.03.108.03.108.026.108.026.11.024.108.023.11.022.11.02.112.018.112.018.11.017.114.015.113.013.113.013.114.01.114.01.114.01.116.005.115.005.117.004.116.002h.117z" fill="#C69264"/><path fill="#737373" d="M329 117h82v107h-82z"/><path d="M512.173 315.35L413 312l.074-276 99.1-4.384L562 112.2v112.914l-49.827 90.235z" fill="#A6A6A6"/><clipPath id="d"><path d="M512.173 315.35L413 312l.074-276 99.1-4.384L562 112.2v112.914l-49.827 90.235z"/></clipPath><g clip-path="url(#d)"><text x="505.091" y="154.469" font-family="Menlo" font-size="106.659" font-weight="700" fill="#666" transform="matrix(0 1 -1 0 596.624 -387.294)">7<tspan x="564.876" y="154.469">3</tspan></text><text x="508.9" y="150.673" font-family="Menlo" font-size="106.659" font-weight="700" fill="#F2F2F2" transform="matrix(0 1 -1 0 596.637 -394.9)">7<tspan x="568.685" y="150.673">3</tspan></text></g><path d="M515.278 320.07L413 317l.074-286 102.065-4.095L567 110.78v115.623l-51.722 93.668zM413 312l99.173 3.35L562 225.113V112.2l-49.827-80.584-99.1 4.384c0 101.333-.073 174.667-.073 276z" fill="#E6E6E6" fill-rule="nonzero"/><g><path d="M411.147 149.23c11.726 11.727 11.726 30.738 0 42.464-11.726 11.725-30.737 11.725-42.463 0-11.725-11.726-11.725-30.737 0-42.463 11.726-11.724 30.737-11.724 42.463 0z" fill="#B3B3B3" stroke-width="2" stroke-linecap="butt" stroke-linejoin="miter" stroke="#CCC"/><path d="M426.684 206.694c1.53-1.53 1.53-4.01 0-5.538l-62.462-62.462c-1.53-1.53-4.008-1.53-5.538 0l-5.537 5.537c-1.53 1.53-1.53 4.01 0 5.54l62.462 62.46c1.528 1.53 4.008 1.53 5.537 0l5.537-5.536z" fill="gray"/><path d="M426.684 201.694c1.53-1.53 1.53-4.01 0-5.538l-62.462-62.462c-1.53-1.53-4.008-1.53-5.538 0l-5.537 5.537c-1.53 1.53-1.53 4.01 0 5.54l62.462 62.46c1.528 1.53 4.008 1.53 5.537 0l5.537-5.536z" fill="#F2F2F2" stroke-width="2" stroke-linecap="butt" stroke-linejoin="miter" stroke="#CCC"/></g><ellipse cx="289.516" cy="172.707" rx="46.484" ry="113.707" fill="#333"/><clipPath id="e"><ellipse cx="289.516" cy="172.707" rx="46.484" ry="113.707"/></clipPath><g clip-path="url(#e)" fill="#4D4D4D"><path d="M369.347 167.962l-110.31-110.31-18.384 18.386 110.31 110.31 18.384-18.386zM349.347 217.962l-110.31-110.31-18.384 18.386 110.31 110.31 18.384-18.386zM339.347 277.962l-110.31-110.31-18.384 18.386 110.31 110.31 18.384-18.386z"/></g><ellipse cx="289.516" cy="172.707" rx="46.484" ry="113.707" fill="none" stroke-width="10" stroke="#4D4D4D"/><g><path d="M347.41 350.742c-19.263-9.002-27.58-31.916-18.578-51.18 9.002-19.263 31.916-27.58 51.18-18.578 19.262 9.002 27.58 31.916 18.578 51.18-9.003 19.262-31.917 27.58-51.18 18.578z" fill="#F2F2F2" stroke-width="4" stroke="#A6A6A6"/><path d="M350.818 361.165l4.53 2.117 16.935-36.238-4.53-2.117-16.935 36.238zM332.7 352.697l4.53 2.117 16.934-36.238-4.53-2.117-16.935 36.237z" fill="#737373"/></g><g><path d="M354.57 11.176c20.54-5.504 41.65 6.685 47.153 27.223 5.504 20.538-6.685 41.65-27.223 47.152-20.54 5.503-41.65-6.685-47.153-27.224-5.503-20.538 6.685-41.65 27.224-47.152z" fill="#F2F2F2" stroke-width="4" stroke="#A6A6A6"/><path d="M345.256 5.39l-4.83 1.293L350.78 45.32l4.83-1.294L345.255 5.39zM364.574.213l-4.83 1.294 10.353 38.637 4.83-1.294L364.574.213z" fill="#737373"/></g></svg>