<svg viewBox="0 0 475 175" xmlns="http://www.w3.org/2000/svg" fill-rule="evenodd" clip-rule="evenodd" stroke-linecap="round" stroke-linejoin="round" stroke-miterlimit="1.414"><path d="M376 148.922C300.286 170.36 201.388 175 155.81 175 76.64 175 0 130.83 0 83.6 0 36.37 78.806 3 157.973 3c45.41 0 143.03.98 218.027 19.256L386 0h60v45.274c18.023 8.674 29 28.18 29 38.326 0 10.098-10.973 30.057-29 39.473V170h-60l-10-21.078z" fill="#1B4971" fill-opacity=".905"/><path d="M457 84.98C457 28.237 237.167 23 164 23S18 49.834 18 84.98C18 120.13 88.833 153 162 153s295-11.273 295-68.02z" fill="gray" fill-opacity=".905" stroke-width="5" stroke="#737373" stroke-opacity=".905"/><path d="M167.906 69.47c-27.82 0-38.906 6.843-38.906 15.264C129 93.156 140.087 100 167.906 100 195.724 100 223 93.156 223 84.734c0-8.42-27.276-15.265-55.094-15.265z" fill="#CCC" stroke-width="3" stroke="#E6E6E6"/></svg>